<?xml version="1.0" encoding="iso-8859-1"?>
<!-- Uploaded to: SVG Repo, www.svgrepo.com, Generator: SVG Repo Mixer Tools -->
<!DOCTYPE svg PUBLIC "-//W3C//DTD SVG 1.1//EN" "http://www.w3.org/Graphics/SVG/1.1/DTD/svg11.dtd">
<svg fill="rgba(255,0,0,1.0) #000000" height="800px" width="800px" version="1.1" id="Capa_1" xmlns="http://www.w3.org/2000/svg" xmlns:xlink="http://www.w3.org/1999/xlink" 
	 viewBox="0 0 427.219 427.219" xml:space="preserve">
<path d="M122.125,159.137c0,12.439,24.901,20.16,25.314,24.771c0.785,8.744-18.832,19.688-17.294,27.841
	c1.646,8.724,24.136,12.767,26.559,20.649c2.652,8.634-12.314,22.708-10.508,30.603c5.89,25.749,45.014,32.442,60.812,42.775
	c-0.107,0.669-0.207,1.339-0.318,2.007c-2.636,15.984-6.579,32.024-12.587,47.098c-5.248,13.543-11.982,26.178-20.544,37.896
	c-6.254,8.057-15.963,16.787-7.746,27.518c20.634,26.942,40.738-32.61,44.189-44.542c6.433-22.243,9.434-46.066,9.057-69.468
	c14.952-11.023,55.924-16.884,61.962-43.284c1.807-7.895-13.16-21.97-10.504-30.603c2.422-7.883,24.91-11.926,26.557-20.649
	c1.539-8.153-18.078-19.097-17.295-27.841c0.414-4.611,25.314-12.332,25.314-24.771c0-12.44-24.9-20.157-25.314-24.77
	c-0.783-8.743,18.834-19.687,17.296-27.84c-1.646-8.724-24.136-12.769-26.558-20.65c-2.656-8.636,13.979-23.199,10.504-30.606
	c-3.941-8.407-26.664-6.634-31.496-13.144C243.764,34.368,231.856,0,213.61,0c-18.248,0-30.152,34.368-35.914,42.127
	c-4.836,6.51-27.557,4.736-31.498,13.144c-3.473,7.407,13.16,21.971,10.508,30.606c-2.424,7.882-24.914,11.927-26.561,20.65
	c-1.537,8.153,18.08,19.097,17.295,27.84C147.027,138.98,122.125,146.696,122.125,159.137z M213.61,42.01
	c4.266,35.722,4.848,71.915,4.999,107.85c-0.146,35.935-0.7,72.131-4.999,107.85c-4.298-35.719-4.853-71.915-4.998-107.85
	C208.762,113.924,209.344,77.732,213.61,42.01z"/>
</svg>