<?xml version="1.0" encoding="iso-8859-1"?>
<!-- Uploaded to: SVG Repo, www.svgrepo.com, Generator: SVG Repo Mixer Tools -->
<!DOCTYPE svg PUBLIC "-//W3C//DTD SVG 1.1//EN" "http://www.w3.org/Graphics/SVG/1.1/DTD/svg11.dtd">
<svg fill="rgba(255,251,0,1.0) #000000" version="1.1" id="Capa_1" xmlns="http://www.w3.org/2000/svg" xmlns:xlink="http://www.w3.org/1999/xlink" 
	 width="800px" height="800px" viewBox="0 0 480.034 480.034"
	 xml:space="preserve">
<g>
	<path d="M210.979,458.3l-25.4-72.1c-10.9,4.2-22.8,6.5-35.3,6.5h-14.5c-13.1,0-25.6-2.5-36.8-7.101l-25.6,72.7
		c0,0,19.3,39.5,68.9,12C191.679,497.7,210.979,458.3,210.979,458.3z"/>
	<path d="M244.88,170.7c0-21.3-10.5-40.5-27.201-53.5c-1.7,0.2-3.4,0.4-5.1,0.7c-18.3,2.5-37.5,5.9-57.3,10.4
		c-0.9,0.2-1.7,0.3-2.6,0.3c-4,0-7.7-2-10-5.4l-15.3-23.4l-3.9-6l-1.5-2.3c-0.7-1.1-1.3-2.3-1.6-3.6c-0.6-2.3-0.5-4.8,0.4-7
		c1.3-3.5,4.2-6.3,7.8-7.3c11.4-3.3,19.3-9.3,24-18.2c10.9-20.7,1.4-50.2,1.3-50.5c-0.4-1.3-0.6-2.7-0.6-4
		c-3.6-0.6-7.3-0.9-11.1-0.9c-39,0-70.5,31.6-70.5,70.5v29.2v6.9v7c-19.5,12.9-32.2,33.7-32.2,57.1l17.2,139.1
		c0,28.7,19,53.4,46.3,64.601c10,4.1,21.1,6.399,32.9,6.399h14.5c11.1,0,21.7-2.1,31.4-5.8c28.1-10.9,47.8-36,47.8-65.2
		L244.88,170.7z M123.279,21.4c15.7,0,15.7,24.4,0,24.4C107.58,45.8,107.479,21.4,123.279,21.4z"/>
	<path d="M439.38,159.9c2.699,0,0.199-11.1-2-43.2c-7.4-108.5-206.3-115.8-259.4-115.8c-8.2,0-12.9,0.2-12.9,0.2s0.4,1.1,0.9,3
		c3.6,13.3,14.6,66.6-34.1,80.8l1.9,2.9l3.9,6l3.9,6l11.1,16.9c17.3-3.9,33.5-6.9,48.8-9.2c3.4-0.5,6.8-1,10.1-1.4
		c0.3,0,0.7-0.1,1-0.1c2.8-0.4,5.5-0.7,8.2-1c19.899-2.3,38-3.4,54.5-3.4C400.079,101.5,433.179,159.9,439.38,159.9z"/>
</g>
</svg>